<svg width="84" height="80" viewBox="0 0 84 80" fill="none" xmlns="http://www.w3.org/2000/svg">
<path d="M16.3718 30C15.987 29.9992 15.6072 29.915 15.2604 29.7535C14.9135 29.592 14.6083 29.3573 14.3672 29.0666C14.126 28.776 13.955 28.4367 13.8667 28.0737C13.7784 27.7107 13.775 27.3332 13.8568 26.9688C15.9204 17.3438 27.6896 10 41.9093 10C56.1291 10 67.8983 17.3438 69.9619 26.9688C70.0437 27.3332 70.0403 27.7107 69.952 28.0737C69.8636 28.4367 69.6926 28.776 69.4515 29.0666C69.2103 29.3573 68.9052 29.592 68.5583 29.7535C68.2114 29.915 67.8317 29.9992 67.4468 30H16.3718Z" stroke="#FEBD2F" stroke-width="4" stroke-linecap="round" stroke-linejoin="round"/>
<path d="M67.7047 52.5V57.5C67.7047 60.1522 66.6176 62.6957 64.6825 64.5711C62.7475 66.4464 60.123 67.5 57.3865 67.5H26.4319C23.6954 67.5 21.0709 66.4464 19.1359 64.5711C17.2009 62.6957 16.1138 60.1522 16.1138 57.5V52.5" stroke="#FEBD2F" stroke-width="4" stroke-linecap="round" stroke-linejoin="round"/>
<path d="M9.66479 55L22.5625 50L35.4602 55L48.358 50L61.2557 55L74.1534 50" stroke="#FEBD2F" stroke-width="4" stroke-linecap="round" stroke-linejoin="round"/>
<path d="M8.375 40H75.4432" stroke="#FEBD2F" stroke-width="4" stroke-linecap="round" stroke-linejoin="round"/>
</svg>
